<?xml version="1.0" encoding="UTF-8"?>
<svg id="Camada_2" data-name="Camada 2" xmlns="http://www.w3.org/2000/svg" viewBox="0 0 873.37 694.59">
  <defs>
    <style>
      .cls-1 {
        fill: #252525;
      }

      .cls-2 {
        fill: #eee8e5;
      }
    </style>
  </defs>
  <g id="Camada_1-2" data-name="Camada 1">
    <path class="cls-1" d="M827.19,233.59c1.44,7.07-1.22,288.41-.19,302.99-2.63,25.23-22.55,47.9-48.89,47.9,0,0-690.56-.06-690.56-.06-26.3,0-47.97-24.9-47.97-50.41C63.12-105.93-91.47,13.19,440.93,2.38c47.31.47,63.76,60.47,111.23,59.79,0,0,206.75.33,206.75.33,37.96.07,67.96,33.35,68.1,63.6,1,21.77-.56,84.81.17,107.49Z"/>
    <path class="cls-2" d="M827.23,170.69c27.66,5.6,46.58,29.96,46.13,58.18,0,0-.26,412.61-.26,412.61-2.92,27.98-25,53.11-54.21,53.11,0,0-765.69-.06-765.69-.06C24.03,694.53,0,666.92,0,638.64c0,0,.04-516.79.04-516.79,0-24.21,18.2-45.2,39.76-52.11,5.6-1.79,9.73-2.46,15.49-2.45,0,0,246.67.29,246.67.29,42.74-3.02,72.76,50.38,97.4,76.93,12.45,14.79,30.56,25.85,50.87,25.86,0,0,376.99.31,376.99.31Z"/>
  </g>
</svg>