<?xml version="1.0" encoding="UTF-8"?>
<svg fill="currentColor" id="Camada_2" data-name="Camada 2" xmlns="http://www.w3.org/2000/svg" viewBox="0 0 256.01 180">
  <g fill="currentColor" id="Camada_1-2" data-name="Camada 1">
    <g fill="currentColor">
      <path fill="currentColor" d="M242.97,2.07l-109.16,109.5c-3.9,3.91-9.1,2.6-12.66-.97L13.15,2.17C15.88.63,18.55,0,22.19,0h211.63c3.6,0,6.01.68,9.15,2.06Z"/>
      <path fill="currentColor" d="M243.1,177.94c-3.76,2.01-6.98,2.06-11.31,2.06l-210.61-.02c-3.36,0-5.68-.59-8.01-2.34l77.14-77.25,20.44,20.8c9.47,10,25.01,9.96,34.51,0l20.46-20.83,77.38,77.57Z"/>
      <path fill="currentColor" d="M2.4,167.42c-1.37-2.84-2.38-5.74-2.38-9.61l-.02-135.76c.16-3.88.92-6.81,2.45-9.57l77.28,77.46L2.4,167.42Z"/>
      <path fill="currentColor" d="M256,157.25c0,4.55-1.04,7.31-2.39,10.17l-77.32-77.48L253.61,12.45c1.44,2.85,2.26,5.72,2.4,9.61v135.19Z"/>
    </g>
  </g>
</svg>