<?xml version="1.0" encoding="UTF-8"?>
<svg fill="currentColor" id="Camada_2" data-name="Camada 2" xmlns="http://www.w3.org/2000/svg" viewBox="0 0 256.05 245.65">
  <g fill="currentColor" id="Camada_1-2" data-name="Camada 1">
    <path fill="currentColor" d="M60.99,52.02c-4.8,10.9-5.53,22.74-1.38,33.52-15.21,15.6-15.96,39.2-9.39,59.71,7.86,24.51,30.35,33.86,54.56,36.03-4.89,4.01-6.8,10.55-8.03,16.39-13.83,8.67-30.73,3.09-38.51-11.08-4.47-8.14-14.43-12.94-23.15-10.8-2.44.6-.27,3.94,1.13,4.77,7.13,4.25,12.78,10.16,15.76,18.05,7.02,18.6,24.55,23.39,44.32,19.04l-.13,22.51c-.02,3.9-4.21,6.37-8.09,5.15-22.25-7-41.79-20.07-56.97-37.3C-14.31,156.43-9.29,78.7,41.54,33.01c49.16-44.19,124.63-43.98,173.48.44,52.7,47.92,55.15,129.61,4.45,180.26-14.47,14.45-32.47,25.62-52.39,31.69-4.43,1.35-7.77-3.05-7.76-6.62l.05-37.1c0-7.86-2.94-14.71-8.38-20.61,24.47-1.98,46.35-11.48,54.32-35.34,6.76-20.23,6.03-44.4-9.09-60.14,3.8-11,3-22.16-1.25-33.07-12.54-1.25-24.44,5.85-35.09,12.64-21.13-5.1-42.73-5.46-63.89.1-10.24-6.47-21.25-13.2-34.98-13.24Z"/>
  </g>
</svg>