<?xml version="1.0" encoding="UTF-8"?>
<svg fill="currentColor" id="Camada_2" data-name="Camada 2" xmlns="http://www.w3.org/2000/svg" viewBox="0 0 213.04 212.95">
  <g fill="currentColor" id="Camada_1-2" data-name="Camada 1">
    <g fill="currentColor">
      <path fill="currentColor" d="M164.1,212.76l-113.73.19c-26.88.04-50.24-23.69-50.26-50.33L0,51.38C-.03,23.49,23.54,0,51.39,0h110.14c28.41,0,51.57,24.11,51.52,52.39l-.22,110.25c-.05,25.62-22.12,50.07-48.72,50.12ZM174.12,49.12c0-5.85-4.74-10.58-10.58-10.58s-10.58,4.74-10.58,10.58,4.74,10.58,10.58,10.58,10.58-4.74,10.58-10.58ZM159.73,106.5c0-29.41-23.84-53.26-53.26-53.26s-53.26,23.84-53.26,53.26,23.84,53.26,53.26,53.26,53.26-23.84,53.26-53.26Z"/>
      <circle fill="currentColor" cx="106.47" cy="106.5" r="32.06"/>
    </g>
  </g>
</svg>