<svg xmlns="http://www.w3.org/2000/svg" viewBox="0 0 512 512" width="512" height="512">
  <path d="M 310.34 52.62 L 306.94 53.05 L 303.57 53.58 L 300.23 54.22 L 296.92 54.96 L 293.64 55.79 L 290.40 56.72 L 287.20 57.75 L 284.05 58.87 L 280.93 60.08 L 277.87 61.39 L 274.85 62.78 L 271.89 64.27 L 268.98 65.84 L 266.13 67.50 L 263.34 69.24 L 260.62 71.07 L 257.96 72.98 L 255.36 74.97 L 252.84 77.04 L 250.39 79.19 L 248.01 81.42 L 245.72 83.72 L 243.50 86.09 L 241.37 88.54 L 239.32 91.07 L 237.37 93.66 L 235.50 96.32 L 233.73 99.05 L 232.05 101.85 L 230.47 104.71 L 228.99 107.64 L 227.62 110.62 L 226.36 113.68 L 225.20 116.79 L 224.15 119.95 L 223.22 123.17 L 222.39 126.43 L 221.67 129.73 L 221.06 133.07 L 220.57 136.44 L 220.18 139.82 L 219.90 143.23 L 219.73 146.65 L 219.67 150.07 L 219.72 153.50 L 219.88 156.92 L 220.14 160.33 L 220.52 163.73 L 221.00 167.10 L 221.59 170.45 L 222.29 173.77 L 223.10 177.05 L 224.02 180.28 L 225.04 183.47 L 226.18 186.60 L 227.42 189.67 L 228.77 192.68 L 230.22 195.62 L 231.79 198.48 L 233.46 201.26 L 235.24 203.95 L 237.12 206.55 L 239.11 209.04 L 241.21 211.44 L 243.42 213.74 L 245.74 215.95 L 248.17 218.09 L 250.72 220.16 L 253.39 222.18 L 256.17 224.15 L 259.08 226.10 L 262.12 228.04 L 265.27 229.96 L 268.50 231.89 L 271.69 233.85 L 274.77 235.85 L 277.63 237.90 L 280.20 240.03 L 282.37 242.24 L 284.05 244.55 L 285.16 246.98 L 285.62 249.53 L 285.46 252.13 L 284.73 254.71 L 283.50 257.19 L 281.80 259.49 L 279.70 261.53 L 277.24 263.23 L 274.47 264.52 L 271.46 265.36 L 268.23 265.80 L 264.83 265.92 L 261.31 265.78 L 257.70 265.46 L 254.05 265.01 L 250.39 264.51 L 246.76 264.00 L 243.15 263.51 L 239.57 263.02 L 236.02 262.57 L 232.50 262.14 L 229.00 261.76 L 225.54 261.43 L 222.10 261.16 L 218.68 260.96 L 215.30 260.83 L 211.94 260.79 L 208.61 260.84 L 205.31 261.00 L 202.03 261.27 L 198.79 261.64 L 195.56 262.12 L 192.35 262.69 L 189.16 263.34 L 185.97 264.05 L 182.79 264.80 L 179.61 265.60 L 176.42 266.43 L 173.23 267.27 L 170.01 268.11 L 166.78 268.94 L 163.53 269.74 L 160.25 270.52 L 156.93 271.24 L 153.58 271.90 L 150.20 272.49 L 146.80 272.99 L 143.38 273.40 L 139.97 273.69 L 136.56 273.87 L 133.18 273.91 L 129.83 273.80 L 126.52 273.54 L 123.26 273.11 L 120.07 272.49 L 116.96 271.68 L 113.93 270.67 L 110.99 269.43 L 108.16 267.97 L 105.45 266.26 L 102.83 264.34 L 100.29 262.22 L 97.80 259.92 L 95.36 257.47 L 92.93 254.89 L 90.50 252.19 L 88.05 249.40 L 85.56 246.54 L 83.02 243.64 L 80.42 240.76 L 77.77 237.98 L 75.10 235.37 L 72.40 233.03 L 69.70 231.02 L 67.01 229.43 L 64.33 228.35 L 61.68 227.84 L 59.08 227.99 L 56.54 228.77 L 54.11 230.11 L 51.80 231.94 L 49.67 234.19 L 47.73 236.78 L 46.02 239.65 L 44.58 242.71 L 43.43 245.90 L 42.55 249.18 L 41.90 252.55 L 41.44 255.97 L 41.13 259.44 L 40.94 262.93 L 40.81 266.42 L 40.73 269.90 L 40.65 273.36 L 40.59 276.79 L 40.55 280.21 L 40.54 283.60 L 40.56 286.98 L 40.62 290.33 L 40.72 293.68 L 40.87 297.00 L 41.07 300.31 L 41.33 303.61 L 41.65 306.90 L 42.04 310.17 L 42.51 313.44 L 43.05 316.70 L 43.67 319.95 L 44.38 323.19 L 45.15 326.42 L 46.01 329.63 L 46.94 332.83 L 47.94 336.01 L 49.02 339.17 L 50.16 342.31 L 51.38 345.43 L 52.67 348.53 L 54.02 351.60 L 55.44 354.64 L 56.93 357.66 L 58.48 360.65 L 60.09 363.60 L 61.77 366.52 L 63.51 369.41 L 65.30 372.26 L 67.16 375.07 L 69.07 377.84 L 71.03 380.57 L 73.06 383.26 L 75.13 385.91 L 77.26 388.50 L 79.44 391.05 L 81.67 393.55 L 83.95 396.00 L 86.27 398.40 L 88.64 400.74 L 91.06 403.03 L 93.52 405.26 L 96.03 407.43 L 98.57 409.53 L 101.16 411.58 L 103.78 413.57 L 106.45 415.49 L 109.15 417.36 L 111.88 419.16 L 114.66 420.91 L 117.46 422.61 L 120.30 424.24 L 123.17 425.83 L 126.07 427.36 L 129.00 428.84 L 131.95 430.27 L 134.93 431.65 L 137.94 432.98 L 140.98 434.26 L 144.03 435.50 L 147.11 436.69 L 150.21 437.84 L 153.33 438.95 L 156.47 440.01 L 159.62 441.03 L 162.80 442.01 L 165.98 442.95 L 169.18 443.86 L 172.40 444.73 L 175.62 445.56 L 178.86 446.36 L 182.11 447.13 L 185.36 447.86 L 188.63 448.56 L 191.89 449.23 L 195.17 449.88 L 198.45 450.49 L 201.73 451.08 L 205.01 451.64 L 208.31 452.17 L 211.60 452.67 L 214.90 453.15 L 218.21 453.61 L 221.52 454.04 L 224.83 454.44 L 228.15 454.82 L 231.47 455.17 L 234.80 455.50 L 238.14 455.81 L 241.48 456.09 L 244.82 456.36 L 248.17 456.60 L 251.53 456.81 L 254.89 457.01 L 258.26 457.18 L 261.63 457.34 L 265.01 457.47 L 268.39 457.58 L 271.78 457.68 L 275.18 457.75 L 278.58 457.81 L 281.99 457.85 L 285.40 457.87 L 288.82 457.87 L 292.25 457.85 L 295.68 457.82 L 299.12 457.77 L 302.56 457.69 L 306.00 457.59 L 309.44 457.47 L 312.88 457.32 L 316.32 457.15 L 319.75 456.94 L 323.18 456.70 L 326.61 456.43 L 330.02 456.12 L 333.43 455.78 L 336.83 455.40 L 340.21 454.98 L 343.59 454.52 L 346.95 454.02 L 350.29 453.47 L 353.62 452.88 L 356.93 452.24 L 360.22 451.55 L 363.50 450.81 L 366.75 450.02 L 369.97 449.17 L 373.18 448.27 L 376.36 447.31 L 379.51 446.29 L 382.63 445.21 L 385.73 444.07 L 388.79 442.86 L 391.82 441.59 L 394.82 440.26 L 397.78 438.85 L 400.69 437.39 L 403.57 435.85 L 406.40 434.25 L 409.19 432.57 L 411.92 430.83 L 414.60 429.02 L 417.23 427.13 L 419.81 425.17 L 422.32 423.14 L 424.77 421.04 L 427.16 418.86 L 429.49 416.60 L 431.75 414.27 L 433.93 411.86 L 436.05 409.38 L 438.09 406.82 L 440.05 404.20 L 441.94 401.51 L 443.75 398.75 L 445.48 395.94 L 447.13 393.06 L 448.70 390.13 L 450.18 387.15 L 451.57 384.12 L 452.88 381.04 L 454.10 377.91 L 455.22 374.74 L 456.26 371.54 L 457.20 368.30 L 458.04 365.02 L 458.79 361.71 L 459.43 358.38 L 459.98 355.03 L 460.43 351.66 L 460.78 348.27 L 461.03 344.88 L 461.18 341.49 L 461.23 338.10 L 461.17 334.71 L 461.01 331.33 L 460.75 327.97 L 460.38 324.63 L 459.90 321.31 L 459.32 318.02 L 458.63 314.76 L 457.84 311.55 L 456.93 308.37 L 455.92 305.24 L 454.80 302.16 L 453.56 299.14 L 452.22 296.17 L 450.76 293.27 L 449.19 290.44 L 447.51 287.69 L 445.71 285.01 L 443.80 282.42 L 441.78 279.91 L 439.63 277.50 L 437.37 275.18 L 435.00 272.96 L 432.50 270.85 L 429.90 268.84 L 427.20 266.91 L 424.42 265.05 L 421.58 263.25 L 418.68 261.49 L 415.75 259.76 L 412.81 258.04 L 409.85 256.32 L 406.91 254.58 L 403.99 252.82 L 401.12 251.00 L 398.29 249.13 L 395.54 247.18 L 392.88 245.14 L 390.32 243.00 L 387.87 240.74 L 385.55 238.34 L 383.41 235.83 L 381.49 233.22 L 379.88 230.58 L 378.65 227.93 L 377.86 225.32 L 377.58 222.80 L 377.88 220.39 L 378.82 218.15 L 380.46 216.11 L 382.71 214.27 L 385.47 212.60 L 388.62 211.10 L 392.06 209.74 L 395.68 208.53 L 399.38 207.44 L 403.05 206.46 L 406.60 205.57 L 410.02 204.76 L 413.34 204.00 L 416.55 203.28 L 419.67 202.57 L 422.72 201.86 L 425.71 201.12 L 428.65 200.33 L 431.55 199.47 L 434.42 198.53 L 437.29 197.48 L 440.15 196.30 L 443.03 194.97 L 445.93 193.47 L 448.87 191.78 L 451.85 189.89 L 454.87 187.78 L 457.82 185.49 L 460.64 183.05 L 463.24 180.50 L 465.53 177.86 L 467.43 175.16 L 468.87 172.44 L 469.74 169.72 L 469.99 167.06 L 469.59 164.53 L 468.55 162.26 L 466.88 160.37 L 464.62 158.94 L 461.84 157.96 L 458.63 157.39 L 455.09 157.18 L 451.31 157.25 L 447.39 157.47 L 443.43 157.73 L 439.52 157.92 L 435.76 157.90 L 432.24 157.57 L 429.06 156.82 L 426.22 155.65 L 423.69 154.10 L 421.45 152.21 L 419.47 150.02 L 417.71 147.59 L 416.17 144.94 L 414.80 142.12 L 413.58 139.17 L 412.49 136.12 L 411.51 132.98 L 410.61 129.78 L 409.78 126.52 L 409.01 123.21 L 408.26 119.88 L 407.52 116.54 L 406.77 113.20 L 405.99 109.87 L 405.16 106.57 L 404.26 103.32 L 403.28 100.13 L 402.18 97.01 L 400.96 93.97 L 399.59 91.04 L 398.07 88.22 L 396.41 85.50 L 394.60 82.89 L 392.66 80.38 L 390.60 77.98 L 388.41 75.69 L 386.10 73.50 L 383.69 71.42 L 381.16 69.45 L 378.54 67.58 L 375.82 65.82 L 373.02 64.16 L 370.13 62.61 L 367.16 61.17 L 364.12 59.83 L 361.02 58.59 L 357.85 57.46 L 354.63 56.44 L 351.36 55.52 L 348.05 54.70 L 344.70 53.99 L 341.31 53.38 L 337.90 52.88 L 334.47 52.48 L 331.02 52.19 L 327.57 52.00 L 324.11 51.92 L 320.65 51.94 L 317.20 52.06 L 313.76 52.29 Z" fill="#FFD100"/>
</svg>
