<?xml version="1.0" encoding="UTF-8"?>
<svg id="Camada_2" data-name="Camada 2" xmlns="http://www.w3.org/2000/svg" viewBox="0 0 255.82 255.52">
  <g id="Camada_1-2" data-name="Camada 1">
    <path d="M255.74,222.43c0,16.45-14.26,32.97-30.81,32.98l-193.03.11c-16.98,0-31.76-16.14-31.77-32.7L0,33.76C-.01,15.93,14.83,0,32.93,0h189.96c18.12,0,32.93,15.93,32.93,33.76l-.08,188.67ZM92.02,69.63c0-12-9.73-21.74-21.74-21.74s-21.74,9.73-21.74,21.74,9.73,21.74,21.74,21.74,21.74-9.73,21.74-21.74ZM143.83,132.11c6.48-5.95,17.34-5.52,23.17.45,4.12,4.22,5.58,10.34,5.6,16.19l.18,53.98c0,2.29,1.64,4.74,4.09,4.74l26.13.03c2.39,0,4.37-2.28,4.36-4.75l-.2-56.97c-.07-21.54-7.54-42.35-29.58-45.78-16.23-2.52-32.25.04-41.28,13.71l-.25-8.99c-.06-2.05-1.98-3.99-4.17-3.98l-24.91.02c-2.67,0-4.53,2.27-4.53,5.03l.02,96.92c0,3.22,2.65,5.08,5.49,5.07l22.92-.02c2.85,0,5.22-2.05,5.24-5l.19-52.02c.03-6.76,2.25-13.78,7.54-18.63ZM82.21,207.8c3.36-.74,4.97-2.96,4.97-6.1v-95.85c-.33-3.02-2.33-5.14-5.27-5.15l-23.02-.03c-3.04,0-5.16,1.95-5.48,5.14l-.02,95.9c0,3.49,2.2,6.03,5.6,6.04l23.22.05Z"/>
  </g>
</svg>