<svg fill="currentColor" xmlns="http://www.w3.org/2000/svg" viewBox="0 0 1005.01 1004.9"><g fill="currentColor" id="Layer_2" data-name="Layer 2"><g fill="currentColor" id="Objects"><path fill="currentColor" d="M976.91,865.4,669.22,605.85A374.59,374.59,0,1,0,29.45,228.75a374.57,374.57,0,0,0,576.4,440.47C638.32,707.7,865.4,976.91,865.4,976.91c30.91,37.26,90.06,37.38,121,0A79.14,79.14,0,0,0,976.91,865.4ZM374.56,686.17A311.61,311.61,0,0,1,154.22,154.22,311.61,311.61,0,1,1,594.9,594.9,309.61,309.61,0,0,1,374.56,686.17Z"/></g></g></svg>