<?xml version="1.0" encoding="UTF-8"?>
<svg id="Camada_2" data-name="Camada 2" xmlns="http://www.w3.org/2000/svg" viewBox="0 0 191.54 256.08">
  <defs>
    <style>
      .cls-1 {
        fill: #676767;
      }

      .cls-2 {
        fill: #262626;
      }
    </style>
  </defs>
  <g id="Camada_1-2" data-name="Camada 1">
    <path class="cls-2" d="M191.39,75.42l-4.53-2.02-65.75-.34-.06-68.41-1.99-4.53-85.26-.12C15.05.12.37,14.27,0,33.11l.08,189.86c.01,18.16,14.53,32.92,32.7,32.95l125.94.16c18.79-.71,32.84-15.23,32.82-34.13l-.15-146.53ZM60.34,150.77v35.79l-11.84.28-.16-36.22-13.13-.07.03-10.14h38.05l.16,9.93-13.11.43ZM104.17,186.78l-8.17-13.99-8.6,13.99-12.59.05,14.74-24.62-12.86-21.67h12.45l6.64,11.11,6.6-11.09,12.47-.15-12.7,21.71,14.34,24.46-12.32.2ZM143.17,150.62l-.06,36.1-11.78.11-.18-36.03-12.94-.22c-.38-3.51-.42-6.6.03-10.17h38.01l.04,10.15-13.12.06Z"/>
    <polygon class="cls-1" points="191.39 75.42 118.88 75.05 119.06 .12 191.39 75.42"/>
  </g>
</svg>