<?xml version="1.0" encoding="UTF-8"?>
<svg id="Camada_2" xmlns="http://www.w3.org/2000/svg" version="1.1" viewBox="0 0 191.5 256.1">
  <!-- Generator: Adobe Illustrator 30.4.0, SVG Export Plug-In . SVG Version: 2.1.4 Build 226)  -->
  <defs>
    <style>
      .st0 {
        fill: #fff;
      }

      .st1 {
        fill: #d8d8d8;
      }
    </style>
  </defs>
  <g id="Camada_1-2">
    <path class="st0" d="M191.4,75.4l-4.5-2-65.8-.3V4.7c0,0-2-4.5-2-4.5H33.8c-18.8,0-33.4,14.1-33.8,33v189.9c0,18.2,14.6,32.9,32.8,32.9l125.9.2c18.8-.7,32.8-15.2,32.8-34.1V75.4q-.1,0-.2,0ZM60.3,150.8v35.8l-11.8.3-.2-36.2h-13.1c0,0,0-10.2,0-10.2h38l.2,9.9-13.1.4h0ZM104.2,186.8l-8.2-14-8.6,14h-12.6c0,0,14.7-24.6,14.7-24.6l-12.9-21.7h12.4l6.6,11.1,6.6-11.1h12.5c0-.1-12.7,21.6-12.7,21.6l14.3,24.5-12.3.2h0ZM143.2,150.6v36.1c0,0-11.8.1-11.8.1l-.2-36-12.9-.2c-.4-3.5-.4-6.6,0-10.2h38v10.1s-13.1,0-13.1,0Z"/>
    <polygon class="st1" points="191.4 75.4 118.9 75.1 119.1 .1 191.4 75.4"/>
  </g>
</svg>