<?xml version="1.0" encoding="UTF-8"?>
<svg id="Camada_2" data-name="Camada 2" xmlns="http://www.w3.org/2000/svg" viewBox="0 0 256.03 256.2">
  <g id="Camada_1-2" data-name="Camada 1">
    <path d="M57.99,235.07l-49.7,15.75,16.04-47.8C-17.92,144.44-3.58,63.4,55.19,22.74,114.03-17.96,194.75-2.52,234.49,57c39.8,59.61,22.99,140.58-38.44,179.44-41.64,26.4-95.76,26.73-138.06-1.37ZM162.36,149.99l-9.71,12.66c-2.49,3.25-6.81,2.41-10.33.96-20.58-8.53-36.77-23.52-48.42-42.43-1.96-3.19-2.51-6.02.25-9.17l8.3-9.45c2.71-3.08,2.73-6.46,1.19-10.13l-12.08-28.74c-3.23-7.68-18.55-5.36-22.84-1.99-12.94,10.16-17.58,27.08-13.67,43.01,2.73,11.08,8.09,20.31,14.71,29.52,12.57,17.47,26.55,33.39,44.86,45.18,15.31,9.86,32.26,16.61,50.42,19.73,12.92,2.23,26.97-4.1,34.79-14.07,5.01-6.38,5.43-14.95,4.9-22.6l-31.87-15.53c-3.95-1.92-7.72-.61-10.52,3.04Z"/>
  </g>
</svg>